ISO-10303-21;
HEADER;
FILE_DESCRIPTION (( 'STEP AP214' ),
    '1' );
FILE_NAME ('XFL2010.STEP',
    '2021-12-28T21:06:03',
    ( '' ),
    ( '' ),
    'SwSTEP 2.0',
    'SolidWorks 2021',
    '' );
FILE_SCHEMA (( 'AUTOMOTIVE_DESIGN' ));
ENDSEC;

DATA;
#1 = CARTESIAN_POINT ( 'NONE',  ( 0.4499999999999999001, -0.05000000000000000278, 0.8250000000000000666 ) ) ;
#2 =( LENGTH_UNIT ( ) NAMED_UNIT ( * ) SI_UNIT ( .MILLI., .METRE. ) );
#3 = VECTOR ( 'NONE', #311, 1000.000000000000000 ) ;
#4 = VECTOR ( 'NONE', #753, 1000.000000000000000 ) ;
#5 = LINE ( 'NONE', #794, #306 ) ;
#6 = COLOUR_RGB ( '',0.1921568627450980227, 0.2039215686274509776, 0.2039215686274509776 ) ;
#7 = UNCERTAINTY_MEASURE_WITH_UNIT (LENGTH_MEASURE( 1.000000000000000082E-05 ), #688, 'distance_accuracy_value', 'NONE');
#8 = CARTESIAN_POINT ( 'NONE',  ( 0.4499999999999999001, 0.000000000000000000, 0.8250000000000000666 ) ) ;
#9 = FILL_AREA_STYLE ('',( #348 ) ) ;
#10 = DIRECTION ( 'NONE',  ( 0.000000000000000000, -0.000000000000000000, -1.000000000000000000 ) ) ;
#11 = DIRECTION ( 'NONE',  ( 0.000000000000000000, 0.000000000000000000, 1.000000000000000000 ) ) ;
#12 =( NAMED_UNIT ( * ) SI_UNIT ( $, .STERADIAN. ) SOLID_ANGLE_UNIT ( ) );
#13 = EDGE_CURVE ( 'NONE', #343, #756, #704, .T. ) ;
#14 = SURFACE_SIDE_STYLE ('',( #742 ) ) ;
#15 = ORIENTED_EDGE ( 'NONE', *, *, #576, .F. ) ;
#16 = SURFACE_STYLE_FILL_AREA ( #610 ) ;
#17 = AXIS2_PLACEMENT_3D ( 'NONE', #532, #541, #791 ) ;
#18 = ORIENTED_EDGE ( 'NONE', *, *, #837, .F. ) ;
#19 = STYLED_ITEM ( 'NONE', ( #851 ), #784 ) ;
#20 = DIRECTION ( 'NONE',  ( 0.000000000000000000, 0.000000000000000000, 1.000000000000000000 ) ) ;
#21 = UNCERTAINTY_MEASURE_WITH_UNIT (LENGTH_MEASURE( 1.000000000000000082E-05 ), #36, 'distance_accuracy_value', 'NONE');
#22 = EDGE_CURVE ( 'NONE', #432, #675, #246, .T. ) ;
#23 = ORIENTED_EDGE ( 'NONE', *, *, #231, .F. ) ;
#24 = SHAPE_DEFINITION_REPRESENTATION ( #660, #58 ) ;
#25 = SURFACE_STYLE_FILL_AREA ( #236 ) ;
#26 = ORIENTED_EDGE ( 'NONE', *, *, #341, .T. ) ;
#27 = EDGE_LOOP ( 'NONE', ( #309, #440, #739, #40 ) ) ;
#28 = APPLICATION_PROTOCOL_DEFINITION ( 'draft international standard', 'automotive_design', 1998, #840 ) ;
#29 =( LENGTH_UNIT ( ) NAMED_UNIT ( * ) SI_UNIT ( .MILLI., .METRE. ) );
#30 = UNCERTAINTY_MEASURE_WITH_UNIT (LENGTH_MEASURE( 1.000000000000000082E-05 ), #104, 'distance_accuracy_value', 'NONE');
#31 = STYLED_ITEM ( 'NONE', ( #520 ), #289 ) ;
#32 = VERTEX_POINT ( 'NONE', #830 ) ;
#33 = AXIS2_PLACEMENT_3D ( 'NONE', #218, #476, #10 ) ;
#34 = PRESENTATION_LAYER_ASSIGNMENT (  '', '', ( #386 ) ) ;
#35 = DIRECTION ( 'NONE',  ( -0.000000000000000000, 0.000000000000000000, -1.000000000000000000 ) ) ;
#36 =( LENGTH_UNIT ( ) NAMED_UNIT ( * ) SI_UNIT ( .MILLI., .METRE. ) );
#37 = EDGE_CURVE ( 'NONE', #675, #581, #55, .T. ) ;
#38 = CARTESIAN_POINT ( 'NONE',  ( 1.033417688318193361, 0.9499999999999999556, 1.083417688318193406 ) ) ;
#39 = ORIENTED_EDGE ( 'NONE', *, *, #214, .T. ) ;
#40 = ORIENTED_EDGE ( 'NONE', *, *, #22, .T. ) ;
#41 = EDGE_CURVE ( 'NONE', #32, #686, #699, .T. ) ;
#42 =( NAMED_UNIT ( * ) PLANE_ANGLE_UNIT ( ) SI_UNIT ( $, .RADIAN. ) );
#43 = LINE ( 'NONE', #260, #611 ) ;
#44 = EDGE_LOOP ( 'NONE', ( #383, #18, #608, #544 ) ) ;
#45 = CARTESIAN_POINT ( 'NONE',  ( 0.8999999999999998002, -0.05000000000000000278, -0.8250000000000001776 ) ) ;
#46 = VECTOR ( 'NONE', #219, 1000.000000000000000 ) ;
#47 = AXIS2_PLACEMENT_3D ( 'NONE', #175, #435, #681 ) ;
#48 = MECHANICAL_DESIGN_GEOMETRIC_PRESENTATION_REPRESENTATION (  '', ( #418 ), #445 ) ;
#49 = MECHANICAL_DESIGN_GEOMETRIC_PRESENTATION_REPRESENTATION (  '', ( #212 ), #310 ) ;
#50 =( NAMED_UNIT ( * ) SI_UNIT ( $, .STERADIAN. ) SOLID_ANGLE_UNIT ( ) );
#51 = EDGE_CURVE ( 'NONE', #98, #234, #43, .T. ) ;
#52 = FILL_AREA_STYLE_COLOUR ( '', #805 ) ;
#53 = ORIENTED_EDGE ( 'NONE', *, *, #485, .F. ) ;
#54 = LINE ( 'NONE', #632, #3 ) ;
#55 = LINE ( 'NONE', #182, #78 ) ;
#56 = ORIENTED_EDGE ( 'NONE', *, *, #113, .T. ) ;
#57 = DIRECTION ( 'NONE',  ( -0.01744974916068272111, -0.9996954598818874604, -0.01744974916068272111 ) ) ;
#58 = ADVANCED_BREP_SHAPE_REPRESENTATION ( 'XFL2010', ( #528, #717 ), #197 ) ;
#59 = SURFACE_STYLE_USAGE ( .BOTH. , #134 ) ;
#60 = EDGE_LOOP ( 'NONE', ( #845, #728, #619, #372 ) ) ;
#61 = CARTESIAN_POINT ( 'NONE',  ( -0.7492379905452506428, 0.9499000000000000776, 0.7057992212116768194 ) ) ;
#62 = VECTOR ( 'NONE', #82, 1000.000000000000000 ) ;
#63 = EDGE_CURVE ( 'NONE', #67, #831, #315, .T. ) ;
#64 = APPLICATION_CONTEXT ( 'automotive_design' ) ;
#65 = AXIS2_PLACEMENT_3D ( 'NONE', #785, #538, #527 ) ;
#66 = PRESENTATION_STYLE_ASSIGNMENT (( #282 ) ) ;
#67 = VERTEX_POINT ( 'NONE', #199 ) ;
#68 = DIRECTION ( 'NONE',  ( 1.000000000000000000, -0.000000000000000000, -2.409338161078899674E-16 ) ) ;
#69 = CARTESIAN_POINT ( 'NONE',  ( -0.8999999999999998002, 0.000000000000000000, -0.8249999999999999556 ) ) ;
#70 = SURFACE_STYLE_FILL_AREA ( #9 ) ;
#71 = CARTESIAN_POINT ( 'NONE',  ( -0.8999999999999998002, -0.05000000000000000278, -0.8249999999999999556 ) ) ;
#72 = DIRECTION ( 'NONE',  ( 0.000000000000000000, 0.000000000000000000, 1.000000000000000000 ) ) ;
#73 = UNCERTAINTY_MEASURE_WITH_UNIT (LENGTH_MEASURE( 1.000000000000000082E-05 ), #29, 'distance_accuracy_value', 'NONE');
#74 = DIRECTION ( 'NONE',  ( 0.000000000000000000, -1.000000000000000000, 0.000000000000000000 ) ) ;
#75 = CARTESIAN_POINT ( 'NONE',  ( -1.033417688318193584, 0.9499999999999999556, -1.083417688318193406 ) ) ;
#76 = CARTESIAN_POINT ( 'NONE',  ( 1.050000000000000044, 0.000000000000000000, -1.100000000000000089 ) ) ;
#77 = LINE ( 'NONE', #272, #172 ) ;
#78 = VECTOR ( 'NONE', #575, 1000.000000000000000 ) ;
#79 = LINE ( 'NONE', #351, #587 ) ;
#80 = AXIS2_PLACEMENT_3D ( 'NONE', #145, #402, #655 ) ;
#81 = AXIS2_PLACEMENT_3D ( 'NONE', #107, #312, #509 ) ;
#82 = DIRECTION ( 'NONE',  ( 1.000000000000000000, -0.000000000000000000, -2.409338161078899674E-16 ) ) ;
#83 = UNCERTAINTY_MEASURE_WITH_UNIT (LENGTH_MEASURE( 1.000000000000000082E-05 ), #788, 'distance_accuracy_value', 'NONE');
#84 = FILL_AREA_STYLE ('',( #798 ) ) ;
#85 = ADVANCED_FACE ( 'NONE', ( #116 ), #320, .T. ) ;
#86 = FACE_OUTER_BOUND ( 'NONE', #553, .T. ) ;
#87 = DIRECTION ( 'NONE',  ( 2.409338161078899674E-16, 0.000000000000000000, -1.000000000000000000 ) ) ;
#88 = PRESENTATION_STYLE_ASSIGNMENT (( #667 ) ) ;
#89 = PLANE ( 'NONE',  #626 ) ;
#90 = VERTEX_POINT ( 'NONE', #456 ) ;
#91 = PLANE ( 'NONE',  #331 ) ;
#92 = ORIENTED_EDGE ( 'NONE', *, *, #202, .F. ) ;
#93 =( NAMED_UNIT ( * ) PLANE_ANGLE_UNIT ( ) SI_UNIT ( $, .RADIAN. ) );
#94 = AXIS2_PLACEMENT_3D ( 'NONE', #228, #87, #366 ) ;
#95 = EDGE_CURVE ( 'NONE', #98, #581, #707, .T. ) ;
#96 = PRESENTATION_LAYER_ASSIGNMENT (  '', '', ( #467 ) ) ;
#97 = CARTESIAN_POINT ( 'NONE',  ( 0.4499999999999999001, -0.05000000000000000278, 0.8250000000000000666 ) ) ;
#98 = VERTEX_POINT ( 'NONE', #185 ) ;
#99 = PRODUCT_DEFINITION_FORMATION_WITH_SPECIFIED_SOURCE ( 'ANY', '', #635, .NOT_KNOWN. ) ;
#100 = EDGE_CURVE ( 'NONE', #651, #166, #119, .T. ) ;
#101 = FILL_AREA_STYLE_COLOUR ( '', #760 ) ;
#102 = ORIENTED_EDGE ( 'NONE', *, *, #63, .F. ) ;
#103 = ORIENTED_EDGE ( 'NONE', *, *, #441, .T. ) ;
#104 =( LENGTH_UNIT ( ) NAMED_UNIT ( * ) SI_UNIT ( .MILLI., .METRE. ) );
#105 = ORIENTED_EDGE ( 'NONE', *, *, #563, .F. ) ;
#106 = EDGE_LOOP ( 'NONE', ( #494, #105, #53, #508 ) ) ;
#107 = CARTESIAN_POINT ( 'NONE',  ( -0.7492379905452506428, 0.9499000000000000776, 0.8303666424907255594 ) ) ;
#108 = FILL_AREA_STYLE_COLOUR ( '', #400 ) ;
#109 = CIRCLE ( 'NONE', #637, 0.1245674212790487678 ) ;
#110 = UNCERTAINTY_MEASURE_WITH_UNIT (LENGTH_MEASURE( 1.000000000000000082E-05 ), #545, 'distance_accuracy_value', 'NONE');
#111 = ORIENTED_EDGE ( 'NONE', *, *, #539, .F. ) ;
#112 = COLOUR_RGB ( '',0.8274509803921568096, 0.8392156862745098200, 0.8274509803921568096 ) ;
#113 = EDGE_CURVE ( 'NONE', #768, #566, #414, .T. ) ;
#114 = ORIENTED_EDGE ( 'NONE', *, *, #563, .T. ) ;
#115 = LINE ( 'NONE', #387, #503 ) ;
#116 = FACE_OUTER_BOUND ( 'NONE', #27, .T. ) ;
#117 = PRESENTATION_STYLE_ASSIGNMENT (( #631 ) ) ;
#118 = PLANE ( 'NONE',  #396 ) ;
#119 = LINE ( 'NONE', #45, #46 ) ;
#120 = ORIENTED_EDGE ( 'NONE', *, *, #669, .F. ) ;
#121 = DIRECTION ( 'NONE',  ( 0.000000000000000000, -1.000000000000000000, 0.000000000000000000 ) ) ;
#122 = SURFACE_STYLE_USAGE ( .BOTH. , #629 ) ;
#123 = EDGE_CURVE ( 'NONE', #581, #752, #470, .T. ) ;
#124 = PRESENTATION_STYLE_ASSIGNMENT (( #460 ) ) ;
#125 =( GEOMETRIC_REPRESENTATION_CONTEXT ( 3 ) GLOBAL_UNCERTAINTY_ASSIGNED_CONTEXT ( ( #83 ) ) GLOBAL_UNIT_ASSIGNED_CONTEXT ( ( #788, #848, #137 ) ) REPRESENTATION_CONTEXT ( 'NONE', 'WORKASPACE' ) );
#126 = FACE_OUTER_BOUND ( 'NONE', #487, .T. ) ;
#127 = ORIENTED_EDGE ( 'NONE', *, *, #253, .T. ) ;
#128 =( GEOMETRIC_REPRESENTATION_CONTEXT ( 3 ) GLOBAL_UNCERTAINTY_ASSIGNED_CONTEXT ( ( #849 ) ) GLOBAL_UNIT_ASSIGNED_CONTEXT ( ( #230, #551, #354 ) ) REPRESENTATION_CONTEXT ( 'NONE', 'WORKASPACE' ) );
#129 = ORIENTED_EDGE ( 'NONE', *, *, #51, .T. ) ;
#130 = DIRECTION ( 'NONE',  ( -0.000000000000000000, 0.000000000000000000, 1.000000000000000000 ) ) ;
#131 = SURFACE_STYLE_FILL_AREA ( #192 ) ;
#132 = DIRECTION ( 'NONE',  ( 0.000000000000000000, 0.000000000000000000, -1.000000000000000000 ) ) ;
#133 =( NAMED_UNIT ( * ) PLANE_ANGLE_UNIT ( ) SI_UNIT ( $, .RADIAN. ) );
#134 = SURFACE_SIDE_STYLE ('',( #478 ) ) ;
#135 = DIRECTION ( 'NONE',  ( -0.000000000000000000, 1.000000000000000000, -0.000000000000000000 ) ) ;
#136 =( NAMED_UNIT ( * ) SI_UNIT ( $, .STERADIAN. ) SOLID_ANGLE_UNIT ( ) );
#137 =( NAMED_UNIT ( * ) SI_UNIT ( $, .STERADIAN. ) SOLID_ANGLE_UNIT ( ) );
#138 = CARTESIAN_POINT ( 'NONE',  ( 0.4499999999999999001, -0.000000000000000000, -0.8250000000000000666 ) ) ;
#139 = AXIS2_PLACEMENT_3D ( 'NONE', #716, #142, #342 ) ;
#140 = STYLED_ITEM ( 'NONE', ( #169 ), #355 ) ;
#141 = MECHANICAL_DESIGN_GEOMETRIC_PRESENTATION_REPRESENTATION (  '', ( #386 ), #762 ) ;
#142 = DIRECTION ( 'NONE',  ( -0.000000000000000000, 0.000000000000000000, 1.000000000000000000 ) ) ;
#143 = FILL_AREA_STYLE_COLOUR ( '', #238 ) ;
#144 = CARTESIAN_POINT ( 'NONE',  ( -0.4499999999999997891, 0.000000000000000000, 0.8249999999999999556 ) ) ;
#145 = CARTESIAN_POINT ( 'NONE',  ( 0.4499999999999999001, -0.05000000000000000278, 0.8250000000000000666 ) ) ;
#146 = EDGE_LOOP ( 'NONE', ( #561, #102, #92, #371 ) ) ;
#147 = DIRECTION ( 'NONE',  ( 0.000000000000000000, 0.000000000000000000, 1.000000000000000000 ) ) ;
#148 = DIRECTION ( 'NONE',  ( 0.000000000000000000, 0.000000000000000000, 1.000000000000000000 ) ) ;
#149 =( NAMED_UNIT ( * ) SI_UNIT ( $, .STERADIAN. ) SOLID_ANGLE_UNIT ( ) );
#150 = EDGE_CURVE ( 'NONE', #160, #436, #283, .T. ) ;
#151 = CARTESIAN_POINT ( 'NONE',  ( -1.050000000000000266, 0.000000000000000000, -1.100000000000000089 ) ) ;
#152 = FACE_OUTER_BOUND ( 'NONE', #747, .T. ) ;
#153 = DIRECTION ( 'NONE',  ( -0.000000000000000000, -0.000000000000000000, 1.000000000000000000 ) ) ;
#154 = VECTOR ( 'NONE', #451, 1000.000000000000000 ) ;
#155 = COLOUR_RGB ( '',0.7921568627450980005, 0.8196078431372548767, 0.9333333333333333481 ) ;
#156 = COLOUR_RGB ( '',0.8274509803921568096, 0.8392156862745098200, 0.8274509803921568096 ) ;
#157 = CARTESIAN_POINT ( 'NONE',  ( -0.8999999999999998002, -0.05000000000000000278, -0.8249999999999999556 ) ) ;
#158 = DIRECTION ( 'NONE',  ( 1.000000000000000000, 0.000000000000000000, -2.409338161078899674E-16 ) ) ;
#159 = LINE ( 'NONE', #97, #677 ) ;
#160 = VERTEX_POINT ( 'NONE', #408 ) ;
#161 = SURFACE_STYLE_USAGE ( .BOTH. , #617 ) ;
#162 = DIRECTION ( 'NONE',  ( 0.000000000000000000, 0.01745240643728354982, -0.9998476951563912696 ) ) ;
#163 = VERTEX_POINT ( 'NONE', #536 ) ;
#164 = UNCERTAINTY_MEASURE_WITH_UNIT (LENGTH_MEASURE( 1.000000000000000082E-05 ), #745, 'distance_accuracy_value', 'NONE');
#165 = ORIENTED_EDGE ( 'NONE', *, *, #269, .T. ) ;
#166 = VERTEX_POINT ( 'NONE', #726 ) ;
#167 = COLOUR_RGB ( '',0.1921568627450980227, 0.2039215686274509776, 0.2039215686274509776 ) ;
#168 = AXIS2_PLACEMENT_3D ( 'NONE', #407, #74, #273 ) ;
#169 = PRESENTATION_STYLE_ASSIGNMENT (( #808 ) ) ;
#170 = COLOUR_RGB ( '',0.8274509803921568096, 0.8392156862745098200, 0.8274509803921568096 ) ;
#171 = ORIENTED_EDGE ( 'NONE', *, *, #198, .F. ) ;
#172 = VECTOR ( 'NONE', #57, 1000.000000000000000 ) ;
#173 = CARTESIAN_POINT ( 'NONE',  ( 0.8999999999999998002, -0.05000000000000000278, 0.8250000000000001776 ) ) ;
#174 = SURFACE_STYLE_FILL_AREA ( #689 ) ;
#175 = CARTESIAN_POINT ( 'NONE',  ( -0.7492379905452506428, 0.9499000000000000776, 0.8303666424907255594 ) ) ;
#176 = UNCERTAINTY_MEASURE_WITH_UNIT (LENGTH_MEASURE( 1.000000000000000082E-05 ), #498, 'distance_accuracy_value', 'NONE');
#177 = ORIENTED_EDGE ( 'NONE', *, *, #761, .T. ) ;
#178 =( NAMED_UNIT ( * ) SI_UNIT ( $, .STERADIAN. ) SOLID_ANGLE_UNIT ( ) );
#179 = ORIENTED_EDGE ( 'NONE', *, *, #241, .F. ) ;
#180 = PRESENTATION_LAYER_ASSIGNMENT (  '', '', ( #31 ) ) ;
#181 =( GEOMETRIC_REPRESENTATION_CONTEXT ( 3 ) GLOBAL_UNCERTAINTY_ASSIGNED_CONTEXT ( ( #207 ) ) GLOBAL_UNIT_ASSIGNED_CONTEXT ( ( #659, #397, #12 ) ) REPRESENTATION_CONTEXT ( 'NONE', 'WORKASPACE' ) );
#182 = CARTESIAN_POINT ( 'NONE',  ( 1.050000000000000044, 0.000000000000000000, 1.100000000000000089 ) ) ;
#183 = VECTOR ( 'NONE', #398, 1000.000000000000000 ) ;
#184 =( NAMED_UNIT ( * ) SI_UNIT ( $, .STERADIAN. ) SOLID_ANGLE_UNIT ( ) );
#185 = CARTESIAN_POINT ( 'NONE',  ( 1.033417688318193361, 0.9499999999999999556, -1.083417688318193406 ) ) ;
#186 = EDGE_CURVE ( 'NONE', #424, #163, #109, .T. ) ;
#187 = CARTESIAN_POINT ( 'NONE',  ( -0.7492379905452506428, 0.9499000000000000776, 0.7057992212116768194 ) ) ;
#188 = ORIENTED_EDGE ( 'NONE', *, *, #548, .T. ) ;
#189 = FILL_AREA_STYLE_COLOUR ( '', #252 ) ;
#190 = EDGE_LOOP ( 'NONE', ( #568, #483, #826, #378 ) ) ;
#191 =( LENGTH_UNIT ( ) NAMED_UNIT ( * ) SI_UNIT ( .MILLI., .METRE. ) );
#192 = FILL_AREA_STYLE ('',( #569 ) ) ;
#193 = AXIS2_PLACEMENT_3D ( 'NONE', #345, #656, #72 ) ;
#194 = CARTESIAN_POINT ( 'NONE',  ( -1.050000000000000266, 0.000000000000000000, -1.100000000000000089 ) ) ;
#195 = MECHANICAL_DESIGN_GEOMETRIC_PRESENTATION_REPRESENTATION (  '', ( #347 ), #417 ) ;
#196 = VECTOR ( 'NONE', #652, 1000.000000000000000 ) ;
#197 =( GEOMETRIC_REPRESENTATION_CONTEXT ( 3 ) GLOBAL_UNCERTAINTY_ASSIGNED_CONTEXT ( ( #790 ) ) GLOBAL_UNIT_ASSIGNED_CONTEXT ( ( #817, #93, #754 ) ) REPRESENTATION_CONTEXT ( 'NONE', 'WORKASPACE' ) );
#198 = EDGE_CURVE ( 'NONE', #566, #550, #597, .T. ) ;
#199 = CARTESIAN_POINT ( 'NONE',  ( -0.4499999999999997891, -0.05000000000000000278, 0.8249999999999999556 ) ) ;
#200 = CARTESIAN_POINT ( 'NONE',  ( 0.8999999999999998002, 0.000000000000000000, 0.8250000000000001776 ) ) ;
#201 =( NAMED_UNIT ( * ) SI_UNIT ( $, .STERADIAN. ) SOLID_ANGLE_UNIT ( ) );
#202 = EDGE_CURVE ( 'NONE', #32, #67, #658, .T. ) ;
#203 = EDGE_LOOP ( 'NONE', ( #39, #23, #740, #239 ) ) ;
#204 = LINE ( 'NONE', #284, #598 ) ;
#205 = SURFACE_SIDE_STYLE ('',( #588 ) ) ;
#206 = DIRECTION ( 'NONE',  ( -0.000000000000000000, 1.000000000000000000, -0.000000000000000000 ) ) ;
#207 = UNCERTAINTY_MEASURE_WITH_UNIT (LENGTH_MEASURE( 1.000000000000000082E-05 ), #659, 'distance_accuracy_value', 'NONE');
#208 = PRESENTATION_LAYER_ASSIGNMENT (  '', '', ( #572 ) ) ;
#209 = AXIS2_PLACEMENT_3D ( 'NONE', #381, #832, #259 ) ;
#210 = SURFACE_STYLE_FILL_AREA ( #841 ) ;
#211 = PRESENTATION_LAYER_ASSIGNMENT (  '', '', ( #638 ) ) ;
#212 = STYLED_ITEM ( 'NONE', ( #778 ), #734 ) ;
#213 = FACE_OUTER_BOUND ( 'NONE', #795, .T. ) ;
#214 = EDGE_CURVE ( 'NONE', #325, #768, #593, .T. ) ;
#215 = DIRECTION ( 'NONE',  ( 0.000000000000000000, 1.000000000000000000, 0.000000000000000000 ) ) ;
#216 = LINE ( 'NONE', #157, #663 ) ;
#217 = PRESENTATION_STYLE_ASSIGNMENT (( #406 ) ) ;
#218 = CARTESIAN_POINT ( 'NONE',  ( 0.000000000000000000, 0.000000000000000000, 0.000000000000000000 ) ) ;
#219 = DIRECTION ( 'NONE',  ( 0.000000000000000000, 0.000000000000000000, 1.000000000000000000 ) ) ;
#220 = SURFACE_STYLE_FILL_AREA ( #84 ) ;
#221 = FILL_AREA_STYLE ('',( #810 ) ) ;
#222 =( GEOMETRIC_REPRESENTATION_CONTEXT ( 3 ) GLOBAL_UNCERTAINTY_ASSIGNED_CONTEXT ( ( #164 ) ) GLOBAL_UNIT_ASSIGNED_CONTEXT ( ( #745, #245, #178 ) ) REPRESENTATION_CONTEXT ( 'NONE', 'WORKASPACE' ) );
#223 = MECHANICAL_DESIGN_GEOMETRIC_PRESENTATION_REPRESENTATION (  '', ( #467 ), #307 ) ;
#224 = MECHANICAL_DESIGN_GEOMETRIC_PRESENTATION_REPRESENTATION (  '', ( #558 ), #573 ) ;
#225 = FILL_AREA_STYLE_COLOUR ( '', #700 ) ;
#226 = ORIENTED_EDGE ( 'NONE', *, *, #761, .F. ) ;
#227 =( NAMED_UNIT ( * ) PLANE_ANGLE_UNIT ( ) SI_UNIT ( $, .RADIAN. ) );
#228 = CARTESIAN_POINT ( 'NONE',  ( 0.8999999999999998002, -0.05000000000000000278, 0.8250000000000001776 ) ) ;
#229 = ORIENTED_EDGE ( 'NONE', *, *, #708, .F. ) ;
#230 =( LENGTH_UNIT ( ) NAMED_UNIT ( * ) SI_UNIT ( .MILLI., .METRE. ) );
#231 = EDGE_CURVE ( 'NONE', #166, #768, #5, .T. ) ;
#232 = CARTESIAN_POINT ( 'NONE',  ( -1.050000000000000266, 0.000000000000000000, -1.100000000000000089 ) ) ;
#233 = UNCERTAINTY_MEASURE_WITH_UNIT (LENGTH_MEASURE( 1.000000000000000082E-05 ), #2, 'distance_accuracy_value', 'NONE');
#234 = VERTEX_POINT ( 'NONE', #75 ) ;
#235 = VECTOR ( 'NONE', #804, 1000.000000000000000 ) ;
#236 = FILL_AREA_STYLE ('',( #225 ) ) ;
#237 = ORIENTED_EDGE ( 'NONE', *, *, #599, .T. ) ;
#238 = COLOUR_RGB ( '',1.000000000000000000, 1.000000000000000000, 1.000000000000000000 ) ;
#239 = ORIENTED_EDGE ( 'NONE', *, *, #501, .T. ) ;
#240 = PRESENTATION_STYLE_ASSIGNMENT (( #292 ) ) ;
#241 = EDGE_CURVE ( 'NONE', #550, #325, #530, .T. ) ;
#242 = PRODUCT_DEFINITION_CONTEXT ( 'detailed design', #64, 'design' ) ;
#243 = ORIENTED_EDGE ( 'NONE', *, *, #63, .T. ) ;
#244 = PRODUCT_CONTEXT ( 'NONE', #840, 'mechanical' ) ;
#245 =( NAMED_UNIT ( * ) PLANE_ANGLE_UNIT ( ) SI_UNIT ( $, .RADIAN. ) );
#246 = LINE ( 'NONE', #759, #154 ) ;
#247 = SURFACE_STYLE_USAGE ( .BOTH. , #316 ) ;
#248 = FACE_OUTER_BOUND ( 'NONE', #190, .T. ) ;
#249 = VECTOR ( 'NONE', #776, 1000.000000000000000 ) ;
#250 = COLOUR_RGB ( '',0.8274509803921568096, 0.8392156862745098200, 0.8274509803921568096 ) ;
#251 = DIRECTION ( 'NONE',  ( 0.9998476951563912696, 0.01745240643728354982, 0.000000000000000000 ) ) ;
#252 = COLOUR_RGB ( '',0.8274509803921568096, 0.8392156862745098200, 0.8274509803921568096 ) ;
#253 = EDGE_CURVE ( 'NONE', #163, #302, #388, .T. ) ;
#254 =( GEOMETRIC_REPRESENTATION_CONTEXT ( 3 ) GLOBAL_UNCERTAINTY_ASSIGNED_CONTEXT ( ( #21 ) ) GLOBAL_UNIT_ASSIGNED_CONTEXT ( ( #36, #628, #614 ) ) REPRESENTATION_CONTEXT ( 'NONE', 'WORKASPACE' ) );
#255 = CARTESIAN_POINT ( 'NONE',  ( -0.8999999999999998002, -0.05000000000000000278, -0.8249999999999999556 ) ) ;
#256 = ORIENTED_EDGE ( 'NONE', *, *, #389, .T. ) ;
#257 = ORIENTED_EDGE ( 'NONE', *, *, #822, .F. ) ;
#258 = PLANE ( 'NONE',  #546 ) ;
#259 = DIRECTION ( 'NONE',  ( 0.000000000000000000, 0.000000000000000000, 1.000000000000000000 ) ) ;
#260 = CARTESIAN_POINT ( 'NONE',  ( 0.000000000000000000, 0.9499999999999999556, -1.083417688318193406 ) ) ;
#261 = DIRECTION ( 'NONE',  ( 1.000000000000000000, 0.000000000000000000, -0.000000000000000000 ) ) ;
#262 = VERTEX_POINT ( 'NONE', #403 ) ;
#263 = VECTOR ( 'NONE', #604, 1000.000000000000000 ) ;
#264 = CARTESIAN_POINT ( 'NONE',  ( 0.4499999999999999001, -0.05000000000000000278, 0.8250000000000000666 ) ) ;
#265 = PRESENTATION_LAYER_ASSIGNMENT (  '', '', ( #625 ) ) ;
#266 = VECTOR ( 'NONE', #68, 1000.000000000000000 ) ;
#267 = MECHANICAL_DESIGN_GEOMETRIC_PRESENTATION_REPRESENTATION (  '', ( #431 ), #323 ) ;
#268 = CARTESIAN_POINT ( 'NONE',  ( 0.8999999999999998002, -0.05000000000000000278, -0.8250000000000001776 ) ) ;
#269 = EDGE_CURVE ( 'NONE', #302, #565, #279, .T. ) ;
#270 = CARTESIAN_POINT ( 'NONE',  ( 0.4499999999999999001, 0.000000000000000000, 0.8250000000000000666 ) ) ;
#271 =( LENGTH_UNIT ( ) NAMED_UNIT ( * ) SI_UNIT ( .MILLI., .METRE. ) );
#272 = CARTESIAN_POINT ( 'NONE',  ( -1.049330113759304739, 0.03837775702642704651, -1.099330113759304561 ) ) ;
#273 = DIRECTION ( 'NONE',  ( 0.000000000000000000, -0.000000000000000000, -1.000000000000000000 ) ) ;
#274 = CARTESIAN_POINT ( 'NONE',  ( 0.000000000000000000, 0.9499999999999999556, 1.083417688318193406 ) ) ;
#275 = LINE ( 'NONE', #268, #701 ) ;
#276 = CARTESIAN_POINT ( 'NONE',  ( -0.7492379905452506428, 0.9499999999999999556, 0.9549340637697742995 ) ) ;
#277 = UNCERTAINTY_MEASURE_WITH_UNIT (LENGTH_MEASURE( 1.000000000000000082E-05 ), #393, 'distance_accuracy_value', 'NONE');
#278 = CYLINDRICAL_SURFACE ( 'NONE', #17, 0.1245674212790487678 ) ;
#279 = CIRCLE ( 'NONE', #193, 0.1245674212790487678 ) ;
#280 = STYLED_ITEM ( 'NONE', ( #755 ), #380 ) ;
#281 = MECHANICAL_DESIGN_GEOMETRIC_PRESENTATION_REPRESENTATION (  '', ( #334 ), #750 ) ;
#282 = SURFACE_STYLE_USAGE ( .BOTH. , #592 ) ;
#283 = LINE ( 'NONE', #649, #786 ) ;
#284 = CARTESIAN_POINT ( 'NONE',  ( -1.050000000000000266, 0.000000000000000000, 1.100000000000000089 ) ) ;
#285 = FACE_OUTER_BOUND ( 'NONE', #44, .T. ) ;
#286 = LINE ( 'NONE', #274, #296 ) ;
#287 = DIRECTION ( 'NONE',  ( -0.000000000000000000, 1.000000000000000000, -0.000000000000000000 ) ) ;
#288 = LINE ( 'NONE', #173, #4 ) ;
#289 = ADVANCED_FACE ( 'NONE', ( #352 ), #783, .F. ) ;
#290 = SURFACE_STYLE_USAGE ( .BOTH. , #14 ) ;
#291 = VERTEX_POINT ( 'NONE', #1 ) ;
#292 = SURFACE_STYLE_USAGE ( .BOTH. , #672 ) ;
#293 = VECTOR ( 'NONE', #722, 1000.000000000000000 ) ;
#294 = ORIENTED_EDGE ( 'NONE', *, *, #775, .F. ) ;
#295 =( GEOMETRIC_REPRESENTATION_CONTEXT ( 3 ) GLOBAL_UNCERTAINTY_ASSIGNED_CONTEXT ( ( #370 ) ) GLOBAL_UNIT_ASSIGNED_CONTEXT ( ( #191, #42, #50 ) ) REPRESENTATION_CONTEXT ( 'NONE', 'WORKASPACE' ) );
#296 = VECTOR ( 'NONE', #526, 1000.000000000000000 ) ;
#297 = SURFACE_SIDE_STYLE ('',( #16 ) ) ;
#298 = ORIENTED_EDGE ( 'NONE', *, *, #269, .F. ) ;
#299 = PRESENTATION_STYLE_ASSIGNMENT (( #665 ) ) ;
#300 = PLANE ( 'NONE',  #664 ) ;
#301 = FACE_OUTER_BOUND ( 'NONE', #502, .T. ) ;
#302 = VERTEX_POINT ( 'NONE', #276 ) ;
#303 = ORIENTED_EDGE ( 'NONE', *, *, #669, .T. ) ;
#304 = ADVANCED_FACE ( 'NONE', ( #213 ), #369, .F. ) ;
#305 = DIRECTION ( 'NONE',  ( 1.000000000000000000, 0.000000000000000000, 0.000000000000000000 ) ) ;
#306 = VECTOR ( 'NONE', #206, 1000.000000000000000 ) ;
#307 =( GEOMETRIC_REPRESENTATION_CONTEXT ( 3 ) GLOBAL_UNCERTAINTY_ASSIGNED_CONTEXT ( ( #718 ) ) GLOBAL_UNIT_ASSIGNED_CONTEXT ( ( #843, #335, #394 ) ) REPRESENTATION_CONTEXT ( 'NONE', 'WORKASPACE' ) );
#308 = CARTESIAN_POINT ( 'NONE',  ( -1.033417688318193584, 0.9499999999999999556, 0.000000000000000000 ) ) ;
#309 = ORIENTED_EDGE ( 'NONE', *, *, #37, .T. ) ;
#310 =( GEOMETRIC_REPRESENTATION_CONTEXT ( 3 ) GLOBAL_UNCERTAINTY_ASSIGNED_CONTEXT ( ( #404 ) ) GLOBAL_UNIT_ASSIGNED_CONTEXT ( ( #271, #645, #711 ) ) REPRESENTATION_CONTEXT ( 'NONE', 'WORKASPACE' ) );
#311 = DIRECTION ( 'NONE',  ( -0.000000000000000000, 1.000000000000000000, -0.000000000000000000 ) ) ;
#312 = DIRECTION ( 'NONE',  ( 0.000000000000000000, 1.000000000000000000, 0.000000000000000000 ) ) ;
#313 = PRESENTATION_STYLE_ASSIGNMENT (( #122 ) ) ;
#314 = EDGE_CURVE ( 'NONE', #234, #160, #618, .T. ) ;
#315 = LINE ( 'NONE', #770, #249 ) ;
#316 = SURFACE_SIDE_STYLE ('',( #623 ) ) ;
#317 = FILL_AREA_STYLE ('',( #504 ) ) ;
#318 =( GEOMETRIC_REPRESENTATION_CONTEXT ( 3 ) GLOBAL_UNCERTAINTY_ASSIGNED_CONTEXT ( ( #542 ) ) GLOBAL_UNIT_ASSIGNED_CONTEXT ( ( #639, #382, #823 ) ) REPRESENTATION_CONTEXT ( 'NONE', 'WORKASPACE' ) );
#319 = PRESENTATION_LAYER_ASSIGNMENT (  '', '', ( #140 ) ) ;
#320 = PLANE ( 'NONE',  #586 ) ;
#321 = COLOUR_RGB ( '',0.8274509803921568096, 0.8392156862745098200, 0.8274509803921568096 ) ;
#322 = PRODUCT_DEFINITION ( 'UNKNOWN', '', #99, #242 ) ;
#323 =( GEOMETRIC_REPRESENTATION_CONTEXT ( 3 ) GLOBAL_UNCERTAINTY_ASSIGNED_CONTEXT ( ( #277 ) ) GLOBAL_UNIT_ASSIGNED_CONTEXT ( ( #393, #779, #201 ) ) REPRESENTATION_CONTEXT ( 'NONE', 'WORKASPACE' ) );
#324 = DIRECTION ( 'NONE',  ( 0.000000000000000000, 0.01745240643728354982, 0.9998476951563912696 ) ) ;
#325 = VERTEX_POINT ( 'NONE', #426 ) ;
#326 = CARTESIAN_POINT ( 'NONE',  ( -0.4499999999999997891, -0.05000000000000000278, -0.8249999999999999556 ) ) ;
#327 = ORIENTED_EDGE ( 'NONE', *, *, #13, .F. ) ;
#328 = ADVANCED_FACE ( 'NONE', ( #301 ), #751, .F. ) ;
#329 = FILL_AREA_STYLE ('',( #782 ) ) ;
#330 = PRESENTATION_LAYER_ASSIGNMENT (  '', '', ( #772 ) ) ;
#331 = AXIS2_PLACEMENT_3D ( 'NONE', #439, #496, #130 ) ;
#332 = ORIENTED_EDGE ( 'NONE', *, *, #241, .T. ) ;
#333 = FACE_OUTER_BOUND ( 'NONE', #60, .T. ) ;
#334 = STYLED_ITEM ( 'NONE', ( #217 ), #847 ) ;
#335 =( NAMED_UNIT ( * ) PLANE_ANGLE_UNIT ( ) SI_UNIT ( $, .RADIAN. ) );
#336 = ORIENTED_EDGE ( 'NONE', *, *, #150, .T. ) ;
#337 = DIRECTION ( 'NONE',  ( -0.01744974916068272111, -0.9996954598818874604, 0.01744974916068272111 ) ) ;
#338 = FILL_AREA_STYLE ('',( #143 ) ) ;
#339 =( LENGTH_UNIT ( ) NAMED_UNIT ( * ) SI_UNIT ( .MILLI., .METRE. ) );
#340 = FACE_BOUND ( 'NONE', #671, .T. ) ;
#341 = EDGE_CURVE ( 'NONE', #291, #262, #159, .T. ) ;
#342 = DIRECTION ( 'NONE',  ( 1.000000000000000000, 0.000000000000000000, 0.000000000000000000 ) ) ;
#343 = VERTEX_POINT ( 'NONE', #362 ) ;
#344 = FACE_OUTER_BOUND ( 'NONE', #106, .T. ) ;
#345 = CARTESIAN_POINT ( 'NONE',  ( -0.7492379905452506428, 0.9499999999999999556, 0.8303666424907255594 ) ) ;
#346 = SURFACE_STYLE_USAGE ( .BOTH. , #415 ) ;
#347 = STYLED_ITEM ( 'NONE', ( #725 ), #519 ) ;
#348 = FILL_AREA_STYLE_COLOUR ( '', #650 ) ;
#349 = STYLED_ITEM ( 'NONE', ( #240 ), #696 ) ;
#350 = PRESENTATION_LAYER_ASSIGNMENT (  '', '', ( #431 ) ) ;
#351 = CARTESIAN_POINT ( 'NONE',  ( -1.050000000000000266, 0.000000000000000000, 1.100000000000000089 ) ) ;
#352 = FACE_OUTER_BOUND ( 'NONE', #690, .T. ) ;
#353 = PRESENTATION_STYLE_ASSIGNMENT (( #161 ) ) ;
#354 =( NAMED_UNIT ( * ) SI_UNIT ( $, .STERADIAN. ) SOLID_ANGLE_UNIT ( ) );
#355 = ADVANCED_FACE ( 'NONE', ( #670 ), #91, .F. ) ;
#356 = FILL_AREA_STYLE_COLOUR ( '', #250 ) ;
#357 = ORIENTED_EDGE ( 'NONE', *, *, #186, .F. ) ;
#358 = VECTOR ( 'NONE', #463, 1000.000000000000000 ) ;
#359 = SURFACE_STYLE_USAGE ( .BOTH. , #373 ) ;
#360 =( GEOMETRIC_REPRESENTATION_CONTEXT ( 3 ) GLOBAL_UNCERTAINTY_ASSIGNED_CONTEXT ( ( #666 ) ) GLOBAL_UNIT_ASSIGNED_CONTEXT ( ( #574, #133, #149 ) ) REPRESENTATION_CONTEXT ( 'NONE', 'WORKASPACE' ) );
#361 =( GEOMETRIC_REPRESENTATION_CONTEXT ( 3 ) GLOBAL_UNCERTAINTY_ASSIGNED_CONTEXT ( ( #30 ) ) GLOBAL_UNIT_ASSIGNED_CONTEXT ( ( #104, #227, #812 ) ) REPRESENTATION_CONTEXT ( 'NONE', 'WORKASPACE' ) );
#362 = CARTESIAN_POINT ( 'NONE',  ( -0.8999999999999998002, 0.000000000000000000, 0.8249999999999999556 ) ) ;
#363 = ORIENTED_EDGE ( 'NONE', *, *, #539, .T. ) ;
#364 = CARTESIAN_POINT ( 'NONE',  ( -0.4499999999999997891, 0.000000000000000000, -0.8249999999999999556 ) ) ;
#365 = CARTESIAN_POINT ( 'NONE',  ( 0.000000000000000000, 0.000000000000000000, 0.000000000000000000 ) ) ;
#366 = DIRECTION ( 'NONE',  ( -1.000000000000000000, 0.000000000000000000, -2.409338161078899674E-16 ) ) ;
#367 = ORIENTED_EDGE ( 'NONE', *, *, #389, .F. ) ;
#368 = DIRECTION ( 'NONE',  ( -0.000000000000000000, 1.000000000000000000, 0.000000000000000000 ) ) ;
#369 = PLANE ( 'NONE',  #94 ) ;
#370 = UNCERTAINTY_MEASURE_WITH_UNIT (LENGTH_MEASURE( 1.000000000000000082E-05 ), #191, 'distance_accuracy_value', 'NONE');
#371 = ORIENTED_EDGE ( 'NONE', *, *, #41, .T. ) ;
#372 = ORIENTED_EDGE ( 'NONE', *, *, #837, .T. ) ;
#373 = SURFACE_SIDE_STYLE ('',( #174 ) ) ;
#374 = STYLED_ITEM ( 'NONE', ( #124 ), #85 ) ;
#375 = PRESENTATION_LAYER_ASSIGNMENT (  '', '', ( #490 ) ) ;
#376 = DIRECTION ( 'NONE',  ( 0.000000000000000000, -0.000000000000000000, -1.000000000000000000 ) ) ;
#377 = PRESENTATION_LAYER_ASSIGNMENT (  '', '', ( #418 ) ) ;
#378 = ORIENTED_EDGE ( 'NONE', *, *, #775, .T. ) ;
#379 = FACE_OUTER_BOUND ( 'NONE', #743, .T. ) ;
#380 = ADVANCED_FACE ( 'NONE', ( #582 ), #118, .T. ) ;
#381 = CARTESIAN_POINT ( 'NONE',  ( -0.7492379905452506428, 0.9499000000000000776, 0.8303666424907255594 ) ) ;
#382 =( NAMED_UNIT ( * ) PLANE_ANGLE_UNIT ( ) SI_UNIT ( $, .RADIAN. ) );
#383 = ORIENTED_EDGE ( 'NONE', *, *, #123, .T. ) ;
#384 = FACE_OUTER_BOUND ( 'NONE', #820, .T. ) ;
#385 = VECTOR ( 'NONE', #453, 1000.000000000000000 ) ;
#386 = STYLED_ITEM ( 'NONE', ( #88 ), #624 ) ;
#387 = CARTESIAN_POINT ( 'NONE',  ( 1.033417688318193139, 0.9499999999999999556, 0.000000000000000000 ) ) ;
#388 = LINE ( 'NONE', #474, #687 ) ;
#389 = EDGE_CURVE ( 'NONE', #831, #343, #698, .T. ) ;
#390 = SURFACE_STYLE_FILL_AREA ( #329 ) ;
#391 = CARTESIAN_POINT ( 'NONE',  ( 0.8999999999999998002, 0.000000000000000000, -0.8250000000000001776 ) ) ;
#392 = FILL_AREA_STYLE ('',( #709 ) ) ;
#393 =( LENGTH_UNIT ( ) NAMED_UNIT ( * ) SI_UNIT ( .MILLI., .METRE. ) );
#394 =( NAMED_UNIT ( * ) SI_UNIT ( $, .STERADIAN. ) SOLID_ANGLE_UNIT ( ) );
#395 = VECTOR ( 'NONE', #450, 1000.000000000000000 ) ;
#396 = AXIS2_PLACEMENT_3D ( 'NONE', #507, #324, #767 ) ;
#397 =( NAMED_UNIT ( * ) PLANE_ANGLE_UNIT ( ) SI_UNIT ( $, .RADIAN. ) );
#398 = DIRECTION ( 'NONE',  ( -0.000000000000000000, 1.000000000000000000, -0.000000000000000000 ) ) ;
#399 = VECTOR ( 'NONE', #796, 1000.000000000000000 ) ;
#400 = COLOUR_RGB ( '',0.7921568627450980005, 0.8196078431372548767, 0.9333333333333333481 ) ;
#401 = EDGE_CURVE ( 'NONE', #163, #424, #514, .T. ) ;
#402 = DIRECTION ( 'NONE',  ( 1.000000000000000000, 0.000000000000000000, 0.000000000000000000 ) ) ;
#403 = CARTESIAN_POINT ( 'NONE',  ( 0.4499999999999999001, -0.05000000000000000278, -0.8250000000000000666 ) ) ;
#404 = UNCERTAINTY_MEASURE_WITH_UNIT (LENGTH_MEASURE( 1.000000000000000082E-05 ), #271, 'distance_accuracy_value', 'NONE');
#405 =( NAMED_UNIT ( * ) PLANE_ANGLE_UNIT ( ) SI_UNIT ( $, .RADIAN. ) );
#406 = SURFACE_STYLE_USAGE ( .BOTH. , #781 ) ;
#407 = CARTESIAN_POINT ( 'NONE',  ( 0.000000000000000000, 0.9499999999999999556, 0.000000000000000000 ) ) ;
#408 = CARTESIAN_POINT ( 'NONE',  ( -1.033417688318193584, 0.9499999999999999556, 1.083417688318193406 ) ) ;
#409 = PRODUCT_RELATED_PRODUCT_CATEGORY ( 'part', '', ( #635 ) ) ;
#410 = ORIENTED_EDGE ( 'NONE', *, *, #41, .F. ) ;
#411 = CARTESIAN_POINT ( 'NONE',  ( -0.7492379905452506428, 0.9499999999999999556, 0.7057992212116768194 ) ) ;
#412 =( LENGTH_UNIT ( ) NAMED_UNIT ( * ) SI_UNIT ( .MILLI., .METRE. ) );
#413 = FILL_AREA_STYLE ('',( #710 ) ) ;
#414 = LINE ( 'NONE', #590, #543 ) ;
#415 = SURFACE_SIDE_STYLE ('',( #220 ) ) ;
#416 =( GEOMETRIC_REPRESENTATION_CONTEXT ( 3 ) GLOBAL_UNCERTAINTY_ASSIGNED_CONTEXT ( ( #525 ) ) GLOBAL_UNIT_ASSIGNED_CONTEXT ( ( #559, #552, #492 ) ) REPRESENTATION_CONTEXT ( 'NONE', 'WORKASPACE' ) );
#417 =( GEOMETRIC_REPRESENTATION_CONTEXT ( 3 ) GLOBAL_UNCERTAINTY_ASSIGNED_CONTEXT ( ( #233 ) ) GLOBAL_UNIT_ASSIGNED_CONTEXT ( ( #2, #793, #706 ) ) REPRESENTATION_CONTEXT ( 'NONE', 'WORKASPACE' ) );
#418 = STYLED_ITEM ( 'NONE', ( #117 ), #721 ) ;
#419 = SURFACE_STYLE_USAGE ( .BOTH. , #547 ) ;
#420 = LINE ( 'NONE', #537, #399 ) ;
#421 = EDGE_CURVE ( 'NONE', #511, #756, #703, .T. ) ;
#422 = FILL_AREA_STYLE ('',( #744 ) ) ;
#423 = DIRECTION ( 'NONE',  ( 0.000000000000000000, 0.000000000000000000, -1.000000000000000000 ) ) ;
#424 = VERTEX_POINT ( 'NONE', #187 ) ;
#425 = FILL_AREA_STYLE ('',( #738 ) ) ;
#426 = CARTESIAN_POINT ( 'NONE',  ( 0.8999999999999998002, 0.000000000000000000, -0.8250000000000001776 ) ) ;
#427 = ORIENTED_EDGE ( 'NONE', *, *, #314, .T. ) ;
#428 = PLANE ( 'NONE',  #702 ) ;
#429 = MECHANICAL_DESIGN_GEOMETRIC_PRESENTATION_REPRESENTATION (  '', ( #638 ), #128 ) ;
#430 = EDGE_CURVE ( 'NONE', #432, #98, #115, .T. ) ;
#431 = STYLED_ITEM ( 'NONE', ( #657 ), #803 ) ;
#432 = VERTEX_POINT ( 'NONE', #38 ) ;
#433 = SURFACE_STYLE_FILL_AREA ( #422 ) ;
#434 = PRESENTATION_STYLE_ASSIGNMENT (( #359 ) ) ;
#435 = DIRECTION ( 'NONE',  ( -0.000000000000000000, 1.000000000000000000, -0.000000000000000000 ) ) ;
#436 = VERTEX_POINT ( 'NONE', #838 ) ;
#437 = ORIENTED_EDGE ( 'NONE', *, *, #421, .T. ) ;
#438 = DIRECTION ( 'NONE',  ( -0.000000000000000000, 1.000000000000000000, -0.000000000000000000 ) ) ;
#439 = CARTESIAN_POINT ( 'NONE',  ( -0.4499999999999997891, -0.05000000000000000278, 0.8249999999999999556 ) ) ;
#440 = ORIENTED_EDGE ( 'NONE', *, *, #95, .F. ) ;
#441 = EDGE_CURVE ( 'NONE', #262, #550, #54, .T. ) ;
#442 = CARTESIAN_POINT ( 'NONE',  ( -0.8999999999999998002, -0.05000000000000000278, 0.8249999999999999556 ) ) ;
#443 = ORIENTED_EDGE ( 'NONE', *, *, #401, .F. ) ;
#444 = MECHANICAL_DESIGN_GEOMETRIC_PRESENTATION_REPRESENTATION (  '', ( #490 ), #360 ) ;
#445 =( GEOMETRIC_REPRESENTATION_CONTEXT ( 3 ) GLOBAL_UNCERTAINTY_ASSIGNED_CONTEXT ( ( #7 ) ) GLOBAL_UNIT_ASSIGNED_CONTEXT ( ( #688, #512, #184 ) ) REPRESENTATION_CONTEXT ( 'NONE', 'WORKASPACE' ) );
#446 = CARTESIAN_POINT ( 'NONE',  ( -0.8999999999999998002, -0.05000000000000000278, -0.8249999999999999556 ) ) ;
#447 = PRESENTATION_LAYER_ASSIGNMENT (  '', '', ( #19 ) ) ;
#448 =( GEOMETRIC_REPRESENTATION_CONTEXT ( 3 ) GLOBAL_UNCERTAINTY_ASSIGNED_CONTEXT ( ( #594 ) ) GLOBAL_UNIT_ASSIGNED_CONTEXT ( ( #412, #654, #136 ) ) REPRESENTATION_CONTEXT ( 'NONE', 'WORKASPACE' ) );
#449 =( NAMED_UNIT ( * ) PLANE_ANGLE_UNIT ( ) SI_UNIT ( $, .RADIAN. ) );
#450 = DIRECTION ( 'NONE',  ( -0.000000000000000000, -0.000000000000000000, -1.000000000000000000 ) ) ;
#451 = DIRECTION ( 'NONE',  ( 0.01744974916068272111, -0.9996954598818874604, 0.01744974916068272111 ) ) ;
#452 = FILL_AREA_STYLE_COLOUR ( '', #170 ) ;
#453 = DIRECTION ( 'NONE',  ( -1.000000000000000000, -0.000000000000000000, -0.000000000000000000 ) ) ;
#454 = CLOSED_SHELL ( 'NONE', ( #624, #519, #85, #847, #784, #380, #477, #803, #304, #455, #633, #727, #734, #696, #289, #355, #683, #328, #721 ) ) ;
#455 = ADVANCED_FACE ( 'NONE', ( #248 ), #764, .F. ) ;
#456 = CARTESIAN_POINT ( 'NONE',  ( -0.8999999999999998002, -0.05000000000000000278, 0.8249999999999999556 ) ) ;
#457 =( GEOMETRIC_REPRESENTATION_CONTEXT ( 3 ) GLOBAL_UNCERTAINTY_ASSIGNED_CONTEXT ( ( #110 ) ) GLOBAL_UNIT_ASSIGNED_CONTEXT ( ( #545, #640, #636 ) ) REPRESENTATION_CONTEXT ( 'NONE', 'WORKASPACE' ) );
#458 = MECHANICAL_DESIGN_GEOMETRIC_PRESENTATION_REPRESENTATION (  '', ( #615 ), #254 ) ;
#459 = LINE ( 'NONE', #264, #534 ) ;
#460 = SURFACE_STYLE_USAGE ( .BOTH. , #634 ) ;
#461 = PLANE ( 'NONE',  #65 ) ;
#462 = FACE_BOUND ( 'NONE', #549, .T. ) ;
#463 = DIRECTION ( 'NONE',  ( -1.000000000000000000, -0.000000000000000000, -0.000000000000000000 ) ) ;
#464 =( NAMED_UNIT ( * ) SI_UNIT ( $, .STERADIAN. ) SOLID_ANGLE_UNIT ( ) );
#465 = SURFACE_STYLE_USAGE ( .BOTH. , #517 ) ;
#466 = CARTESIAN_POINT ( 'NONE',  ( 0.8999999999999998002, 0.000000000000000000, -0.8250000000000001776 ) ) ;
#467 = STYLED_ITEM ( 'NONE', ( #66 ), #477 ) ;
#468 = MECHANICAL_DESIGN_GEOMETRIC_PRESENTATION_REPRESENTATION (  '', ( #19 ), #448 ) ;
#469 = DIRECTION ( 'NONE',  ( -1.000000000000000000, 0.000000000000000000, 0.000000000000000000 ) ) ;
#470 = LINE ( 'NONE', #151, #358 ) ;
#471 = CARTESIAN_POINT ( 'NONE',  ( -0.8999999999999998002, 0.000000000000000000, -0.8249999999999999556 ) ) ;
#472 = CARTESIAN_POINT ( 'NONE',  ( 0.8999999999999998002, -0.05000000000000000278, -0.8250000000000001776 ) ) ;
#473 = SURFACE_STYLE_USAGE ( .BOTH. , #643 ) ;
#474 = CARTESIAN_POINT ( 'NONE',  ( -0.7492379905452506428, 0.9499000000000000776, 0.9549340637697742995 ) ) ;
#475 = DIRECTION ( 'NONE',  ( 1.000000000000000000, 0.000000000000000000, 0.000000000000000000 ) ) ;
#476 = DIRECTION ( 'NONE',  ( 0.000000000000000000, -1.000000000000000000, 0.000000000000000000 ) ) ;
#477 = ADVANCED_FACE ( 'NONE', ( #462, #513 ), #646, .F. ) ;
#478 = SURFACE_STYLE_FILL_AREA ( #799 ) ;
#479 = DIRECTION ( 'NONE',  ( 1.000000000000000000, 0.000000000000000000, 0.000000000000000000 ) ) ;
#480 = MECHANICAL_DESIGN_GEOMETRIC_PRESENTATION_REPRESENTATION (  '', ( #374 ), #318 ) ;
#481 = COLOUR_RGB ( '',0.1921568627450980227, 0.2039215686274509776, 0.2039215686274509776 ) ;
#482 = CARTESIAN_POINT ( 'NONE',  ( 0.8999999999999998002, -0.05000000000000000278, -0.8250000000000001776 ) ) ;
#483 = ORIENTED_EDGE ( 'NONE', *, *, #441, .F. ) ;
#484 = ORIENTED_EDGE ( 'NONE', *, *, #430, .T. ) ;
#485 = EDGE_CURVE ( 'NONE', #752, #436, #79, .T. ) ;
#486 = APPLICATION_PROTOCOL_DEFINITION ( 'draft international standard', 'automotive_design', 1998, #64 ) ;
#487 = EDGE_LOOP ( 'NONE', ( #676, #303, #26, #763 ) ) ;
#488 = CARTESIAN_POINT ( 'NONE',  ( 0.000000000000000000, -0.05000000000000000278, 0.000000000000000000 ) ) ;
#489 = COLOUR_RGB ( '',0.8274509803921568096, 0.8392156862745098200, 0.8274509803921568096 ) ;
#490 = STYLED_ITEM ( 'NONE', ( #313 ), #455 ) ;
#491 = MECHANICAL_DESIGN_GEOMETRIC_PRESENTATION_REPRESENTATION (  '', ( #715 ), #361 ) ;
#492 =( NAMED_UNIT ( * ) SI_UNIT ( $, .STERADIAN. ) SOLID_ANGLE_UNIT ( ) );
#493 = ORIENTED_EDGE ( 'NONE', *, *, #186, .T. ) ;
#494 = ORIENTED_EDGE ( 'NONE', *, *, #37, .F. ) ;
#495 = CARTESIAN_POINT ( 'NONE',  ( 0.8999999999999998002, -0.05000000000000000278, -0.8250000000000001776 ) ) ;
#496 = DIRECTION ( 'NONE',  ( -1.000000000000000000, 0.000000000000000000, -0.000000000000000000 ) ) ;
#497 = ORIENTED_EDGE ( 'NONE', *, *, #599, .F. ) ;
#498 =( LENGTH_UNIT ( ) NAMED_UNIT ( * ) SI_UNIT ( .MILLI., .METRE. ) );
#499 = DIRECTION ( 'NONE',  ( 0.000000000000000000, 0.9998476951563911586, 0.01745240643728354635 ) ) ;
#500 = SURFACE_STYLE_FILL_AREA ( #829 ) ;
#501 = EDGE_CURVE ( 'NONE', #651, #325, #275, .T. ) ;
#502 = EDGE_LOOP ( 'NONE', ( #226, #443, #127, #165 ) ) ;
#503 = VECTOR ( 'NONE', #376, 1000.000000000000000 ) ;
#504 = FILL_AREA_STYLE_COLOUR ( '', #714 ) ;
#505 = DIRECTION ( 'NONE',  ( -0.01745240643728354635, 0.9998476951563911586, 0.000000000000000000 ) ) ;
#506 = SURFACE_STYLE_FILL_AREA ( #577 ) ;
#507 = CARTESIAN_POINT ( 'NONE',  ( -1.050000000000000266, 0.000000000000000000, 1.100000000000000089 ) ) ;
#508 = ORIENTED_EDGE ( 'NONE', *, *, #123, .F. ) ;
#509 = DIRECTION ( 'NONE',  ( 0.000000000000000000, -0.000000000000000000, 1.000000000000000000 ) ) ;
#510 = SURFACE_SIDE_STYLE ('',( #500 ) ) ;
#511 = VERTEX_POINT ( 'NONE', #71 ) ;
#512 =( NAMED_UNIT ( * ) PLANE_ANGLE_UNIT ( ) SI_UNIT ( $, .RADIAN. ) );
#513 = FACE_OUTER_BOUND ( 'NONE', #809, .T. ) ;
#514 = CIRCLE ( 'NONE', #209, 0.1245674212790487678 ) ;
#515 = DIRECTION ( 'NONE',  ( -1.000000000000000000, -0.000000000000000000, -0.000000000000000000 ) ) ;
#516 = PRESENTATION_LAYER_ASSIGNMENT (  '', '', ( #212 ) ) ;
#517 = SURFACE_SIDE_STYLE ('',( #653 ) ) ;
#518 = FILL_AREA_STYLE_COLOUR ( '', #828 ) ;
#519 = ADVANCED_FACE ( 'NONE', ( #344, #340, #602 ), #523, .T. ) ;
#520 = PRESENTATION_STYLE_ASSIGNMENT (( #59 ) ) ;
#521 =( LENGTH_UNIT ( ) NAMED_UNIT ( * ) SI_UNIT ( .MILLI., .METRE. ) );
#522 = CARTESIAN_POINT ( 'NONE',  ( -0.7492379905452506428, 0.9499999999999999556, 0.8303666424907255594 ) ) ;
#523 = PLANE ( 'NONE',  #33 ) ;
#524 = ORIENTED_EDGE ( 'NONE', *, *, #214, .F. ) ;
#525 = UNCERTAINTY_MEASURE_WITH_UNIT (LENGTH_MEASURE( 1.000000000000000082E-05 ), #559, 'distance_accuracy_value', 'NONE');
#526 = DIRECTION ( 'NONE',  ( 1.000000000000000000, -0.000000000000000000, -0.000000000000000000 ) ) ;
#527 = DIRECTION ( 'NONE',  ( -0.01745240643728354635, -0.9998476951563911586, 0.000000000000000000 ) ) ;
#528 = MANIFOLD_SOLID_BREP ( 'Cut-Extrude1', #454 ) ;
#529 = MECHANICAL_DESIGN_GEOMETRIC_PRESENTATION_REPRESENTATION (  '', ( #572 ), #416 ) ;
#530 = LINE ( 'NONE', #466, #62 ) ;
#531 = VECTOR ( 'NONE', #693, 1000.000000000000000 ) ;
#532 = CARTESIAN_POINT ( 'NONE',  ( -0.7492379905452506428, 0.9499000000000000776, 0.8303666424907255594 ) ) ;
#533 = AXIS2_PLACEMENT_3D ( 'NONE', #766, #121, #562 ) ;
#534 = VECTOR ( 'NONE', #135, 1000.000000000000000 ) ;
#535 = DIRECTION ( 'NONE',  ( -0.000000000000000000, -0.000000000000000000, 1.000000000000000000 ) ) ;
#536 = CARTESIAN_POINT ( 'NONE',  ( -0.7492379905452506428, 0.9499000000000000776, 0.9549340637697742995 ) ) ;
#537 = CARTESIAN_POINT ( 'NONE',  ( -0.8999999999999998002, -0.05000000000000000278, 0.8249999999999999556 ) ) ;
#538 = DIRECTION ( 'NONE',  ( -0.9998476951563912696, 0.01745240643728354982, 0.000000000000000000 ) ) ;
#539 = EDGE_CURVE ( 'NONE', #756, #686, #850, .T. ) ;
#540 = FILL_AREA_STYLE_COLOUR ( '', #489 ) ;
#541 = DIRECTION ( 'NONE',  ( -0.000000000000000000, 1.000000000000000000, -0.000000000000000000 ) ) ;
#542 = UNCERTAINTY_MEASURE_WITH_UNIT (LENGTH_MEASURE( 1.000000000000000082E-05 ), #639, 'distance_accuracy_value', 'NONE');
#543 = VECTOR ( 'NONE', #661, 1000.000000000000000 ) ;
#544 = ORIENTED_EDGE ( 'NONE', *, *, #95, .T. ) ;
#545 =( LENGTH_UNIT ( ) NAMED_UNIT ( * ) SI_UNIT ( .MILLI., .METRE. ) );
#546 = AXIS2_PLACEMENT_3D ( 'NONE', #705, #132, #583 ) ;
#547 = SURFACE_SIDE_STYLE ('',( #25 ) ) ;
#548 = EDGE_CURVE ( 'NONE', #160, #432, #286, .T. ) ;
#549 = EDGE_LOOP ( 'NONE', ( #298, #257 ) ) ;
#550 = VERTEX_POINT ( 'NONE', #138 ) ;
#551 =( NAMED_UNIT ( * ) PLANE_ANGLE_UNIT ( ) SI_UNIT ( $, .RADIAN. ) );
#552 =( NAMED_UNIT ( * ) PLANE_ANGLE_UNIT ( ) SI_UNIT ( $, .RADIAN. ) );
#553 = EDGE_LOOP ( 'NONE', ( #627, #777, #237, #641 ) ) ;
#554 = ORIENTED_EDGE ( 'NONE', *, *, #813, .F. ) ;
#555 = PLANE ( 'NONE',  #773 ) ;
#556 = VECTOR ( 'NONE', #579, 1000.000000000000000 ) ;
#557 =( NAMED_UNIT ( * ) SI_UNIT ( $, .STERADIAN. ) SOLID_ANGLE_UNIT ( ) );
#558 = STYLED_ITEM ( 'NONE', ( #834 ), #727 ) ;
#559 =( LENGTH_UNIT ( ) NAMED_UNIT ( * ) SI_UNIT ( .MILLI., .METRE. ) );
#560 = EDGE_LOOP ( 'NONE', ( #769, #673, #15, #622 ) ) ;
#561 = ORIENTED_EDGE ( 'NONE', *, *, #813, .T. ) ;
#562 = DIRECTION ( 'NONE',  ( 0.000000000000000000, -0.000000000000000000, -1.000000000000000000 ) ) ;
#563 = EDGE_CURVE ( 'NONE', #436, #675, #204, .T. ) ;
#564 = SURFACE_STYLE_FILL_AREA ( #317 ) ;
#565 = VERTEX_POINT ( 'NONE', #411 ) ;
#566 = VERTEX_POINT ( 'NONE', #8 ) ;
#567 = FILL_AREA_STYLE ('',( #189 ) ) ;
#568 = ORIENTED_EDGE ( 'NONE', *, *, #198, .T. ) ;
#569 = FILL_AREA_STYLE_COLOUR ( '', #167 ) ;
#570 = LINE ( 'NONE', #442, #815 ) ;
#571 = EDGE_LOOP ( 'NONE', ( #327, #367, #554, #111 ) ) ;
#572 = STYLED_ITEM ( 'NONE', ( #674 ), #328 ) ;
#573 =( GEOMETRIC_REPRESENTATION_CONTEXT ( 3 ) GLOBAL_UNCERTAINTY_ASSIGNED_CONTEXT ( ( #176 ) ) GLOBAL_UNIT_ASSIGNED_CONTEXT ( ( #498, #449, #695 ) ) REPRESENTATION_CONTEXT ( 'NONE', 'WORKASPACE' ) );
#574 =( LENGTH_UNIT ( ) NAMED_UNIT ( * ) SI_UNIT ( .MILLI., .METRE. ) );
#575 = DIRECTION ( 'NONE',  ( 0.000000000000000000, 0.000000000000000000, -1.000000000000000000 ) ) ;
#576 = EDGE_CURVE ( 'NONE', #90, #511, #723, .T. ) ;
#577 = FILL_AREA_STYLE ('',( #52 ) ) ;
#578 = CARTESIAN_POINT ( 'NONE',  ( -0.8999999999999998002, 0.000000000000000000, 0.8249999999999999556 ) ) ;
#579 = DIRECTION ( 'NONE',  ( 0.01744974916068272111, -0.9996954598818874604, -0.01744974916068272111 ) ) ;
#580 = FILL_AREA_STYLE ('',( #452 ) ) ;
#581 = VERTEX_POINT ( 'NONE', #76 ) ;
#582 = FACE_OUTER_BOUND ( 'NONE', #839, .T. ) ;
#583 = DIRECTION ( 'NONE',  ( -1.000000000000000000, 0.000000000000000000, -0.000000000000000000 ) ) ;
#584 = VECTOR ( 'NONE', #147, 1000.000000000000000 ) ;
#585 = EDGE_CURVE ( 'NONE', #67, #90, #420, .T. ) ;
#586 = AXIS2_PLACEMENT_3D ( 'NONE', #630, #251, #505 ) ;
#587 = VECTOR ( 'NONE', #535, 1000.000000000000000 ) ;
#588 = SURFACE_STYLE_FILL_AREA ( #392 ) ;
#589 = SURFACE_STYLE_FILL_AREA ( #413 ) ;
#590 = CARTESIAN_POINT ( 'NONE',  ( 0.8999999999999998002, 0.000000000000000000, 0.8250000000000001776 ) ) ;
#591 = PRESENTATION_STYLE_ASSIGNMENT (( #346 ) ) ;
#592 = SURFACE_SIDE_STYLE ('',( #589 ) ) ;
#593 = LINE ( 'NONE', #391, #584 ) ;
#594 = UNCERTAINTY_MEASURE_WITH_UNIT (LENGTH_MEASURE( 1.000000000000000082E-05 ), #412, 'distance_accuracy_value', 'NONE');
#595 =( NAMED_UNIT ( * ) PLANE_ANGLE_UNIT ( ) SI_UNIT ( $, .RADIAN. ) );
#596 =( GEOMETRIC_REPRESENTATION_CONTEXT ( 3 ) GLOBAL_UNCERTAINTY_ASSIGNED_CONTEXT ( ( #73 ) ) GLOBAL_UNIT_ASSIGNED_CONTEXT ( ( #29, #621, #732 ) ) REPRESENTATION_CONTEXT ( 'NONE', 'WORKASPACE' ) );
#597 = LINE ( 'NONE', #270, #263 ) ;
#598 = VECTOR ( 'NONE', #479, 1000.000000000000000 ) ;
#599 = EDGE_CURVE ( 'NONE', #511, #32, #216, .T. ) ;
#600 = PRESENTATION_LAYER_ASSIGNMENT (  '', '', ( #334 ) ) ;
#601 = SURFACE_SIDE_STYLE ('',( #210 ) ) ;
#602 = FACE_BOUND ( 'NONE', #571, .T. ) ;
#603 = ORIENTED_EDGE ( 'NONE', *, *, #609, .F. ) ;
#604 = DIRECTION ( 'NONE',  ( 0.000000000000000000, 0.000000000000000000, -1.000000000000000000 ) ) ;
#605 = UNCERTAINTY_MEASURE_WITH_UNIT (LENGTH_MEASURE( 1.000000000000000082E-05 ), #521, 'distance_accuracy_value', 'NONE');
#606 = CARTESIAN_POINT ( 'NONE',  ( 0.8999999999999998002, -0.05000000000000000278, -0.8250000000000001776 ) ) ;
#607 = PRESENTATION_STYLE_ASSIGNMENT (( #290 ) ) ;
#608 = ORIENTED_EDGE ( 'NONE', *, *, #51, .F. ) ;
#609 = EDGE_CURVE ( 'NONE', #262, #651, #719, .T. ) ;
#610 = FILL_AREA_STYLE ('',( #356 ) ) ;
#611 = VECTOR ( 'NONE', #515, 1000.000000000000000 ) ;
#612 = ORIENTED_EDGE ( 'NONE', *, *, #231, .T. ) ;
#613 = PRESENTATION_LAYER_ASSIGNMENT (  '', '', ( #280 ) ) ;
#614 =( NAMED_UNIT ( * ) SI_UNIT ( $, .STERADIAN. ) SOLID_ANGLE_UNIT ( ) );
#615 = STYLED_ITEM ( 'NONE', ( #434 ), #58 ) ;
#616 = EDGE_LOOP ( 'NONE', ( #332, #684, #603, #103 ) ) ;
#617 = SURFACE_SIDE_STYLE ('',( #680 ) ) ;
#618 = LINE ( 'NONE', #308, #235 ) ;
#619 = ORIENTED_EDGE ( 'NONE', *, *, #314, .F. ) ;
#620 = DIRECTION ( 'NONE',  ( 0.000000000000000000, -0.000000000000000000, 1.000000000000000000 ) ) ;
#621 =( NAMED_UNIT ( * ) PLANE_ANGLE_UNIT ( ) SI_UNIT ( $, .RADIAN. ) );
#622 = ORIENTED_EDGE ( 'NONE', *, *, #708, .T. ) ;
#623 = SURFACE_STYLE_FILL_AREA ( #567 ) ;
#624 = ADVANCED_FACE ( 'NONE', ( #152 ), #278, .F. ) ;
#625 = STYLED_ITEM ( 'NONE', ( #591 ), #528 ) ;
#626 = AXIS2_PLACEMENT_3D ( 'NONE', #482, #741, #158 ) ;
#627 = ORIENTED_EDGE ( 'NONE', *, *, #585, .T. ) ;
#628 =( NAMED_UNIT ( * ) PLANE_ANGLE_UNIT ( ) SI_UNIT ( $, .RADIAN. ) );
#629 = SURFACE_SIDE_STYLE ('',( #564 ) ) ;
#630 = CARTESIAN_POINT ( 'NONE',  ( 1.050000000000000044, 0.000000000000000000, 1.100000000000000089 ) ) ;
#631 = SURFACE_STYLE_USAGE ( .BOTH. , #757 ) ;
#632 = CARTESIAN_POINT ( 'NONE',  ( 0.4499999999999999001, -0.05000000000000000278, -0.8250000000000000666 ) ) ;
#633 = ADVANCED_FACE ( 'NONE', ( #807 ), #89, .F. ) ;
#634 = SURFACE_SIDE_STYLE ('',( #131 ) ) ;
#635 = PRODUCT ( 'XFL2010', 'XFL2010', '', ( #244 ) ) ;
#636 =( NAMED_UNIT ( * ) SI_UNIT ( $, .STERADIAN. ) SOLID_ANGLE_UNIT ( ) );
#637 = AXIS2_PLACEMENT_3D ( 'NONE', #644, #215, #11 ) ;
#638 = STYLED_ITEM ( 'NONE', ( #353 ), #683 ) ;
#639 =( LENGTH_UNIT ( ) NAMED_UNIT ( * ) SI_UNIT ( .MILLI., .METRE. ) );
#640 =( NAMED_UNIT ( * ) PLANE_ANGLE_UNIT ( ) SI_UNIT ( $, .RADIAN. ) );
#641 = ORIENTED_EDGE ( 'NONE', *, *, #202, .T. ) ;
#642 = FACE_OUTER_BOUND ( 'NONE', #203, .T. ) ;
#643 = SURFACE_SIDE_STYLE ('',( #390 ) ) ;
#644 = CARTESIAN_POINT ( 'NONE',  ( -0.7492379905452506428, 0.9499000000000000776, 0.8303666424907255594 ) ) ;
#645 =( NAMED_UNIT ( * ) PLANE_ANGLE_UNIT ( ) SI_UNIT ( $, .RADIAN. ) );
#646 = PLANE ( 'NONE',  #168 ) ;
#647 = VECTOR ( 'NONE', #729, 1000.000000000000000 ) ;
#648 = PRESENTATION_LAYER_ASSIGNMENT (  '', '', ( #558 ) ) ;
#649 = CARTESIAN_POINT ( 'NONE',  ( -1.050000000000000266, 0.000000000000000000, 1.100000000000000089 ) ) ;
#650 = COLOUR_RGB ( '',0.1921568627450980227, 0.2039215686274509776, 0.2039215686274509776 ) ;
#651 = VERTEX_POINT ( 'NONE', #495 ) ;
#652 = DIRECTION ( 'NONE',  ( -0.000000000000000000, -0.000000000000000000, -1.000000000000000000 ) ) ;
#653 = SURFACE_STYLE_FILL_AREA ( #580 ) ;
#654 =( NAMED_UNIT ( * ) PLANE_ANGLE_UNIT ( ) SI_UNIT ( $, .RADIAN. ) );
#655 = DIRECTION ( 'NONE',  ( 0.000000000000000000, 0.000000000000000000, -1.000000000000000000 ) ) ;
#656 = DIRECTION ( 'NONE',  ( 0.000000000000000000, 1.000000000000000000, 0.000000000000000000 ) ) ;
#657 = PRESENTATION_STYLE_ASSIGNMENT (( #797 ) ) ;
#658 = LINE ( 'NONE', #780, #293 ) ;
#659 =( LENGTH_UNIT ( ) NAMED_UNIT ( * ) SI_UNIT ( .MILLI., .METRE. ) );
#660 = PRODUCT_DEFINITION_SHAPE ( 'NONE', 'NONE',  #322 ) ;
#661 = DIRECTION ( 'NONE',  ( -1.000000000000000000, 0.000000000000000000, -2.409338161078899674E-16 ) ) ;
#662 = SURFACE_STYLE_FILL_AREA ( #338 ) ;
#663 = VECTOR ( 'NONE', #475, 1000.000000000000000 ) ;
#664 = AXIS2_PLACEMENT_3D ( 'NONE', #232, #162, #499 ) ;
#665 = SURFACE_STYLE_USAGE ( .BOTH. , #668 ) ;
#666 = UNCERTAINTY_MEASURE_WITH_UNIT (LENGTH_MEASURE( 1.000000000000000082E-05 ), #574, 'distance_accuracy_value', 'NONE');
#667 = SURFACE_STYLE_USAGE ( .BOTH. , #800 ) ;
#668 = SURFACE_SIDE_STYLE ('',( #433 ) ) ;
#669 = EDGE_CURVE ( 'NONE', #166, #291, #288, .T. ) ;
#670 = FACE_OUTER_BOUND ( 'NONE', #146, .T. ) ;
#671 = EDGE_LOOP ( 'NONE', ( #811, #524, #179, #171 ) ) ;
#672 = SURFACE_SIDE_STYLE ('',( #816 ) ) ;
#673 = ORIENTED_EDGE ( 'NONE', *, *, #421, .F. ) ;
#674 = PRESENTATION_STYLE_ASSIGNMENT (( #419 ) ) ;
#675 = VERTEX_POINT ( 'NONE', #749 ) ;
#676 = ORIENTED_EDGE ( 'NONE', *, *, #100, .T. ) ;
#677 = VECTOR ( 'NONE', #423, 1000.000000000000000 ) ;
#678 = FILL_AREA_STYLE ('',( #101 ) ) ;
#679 = ORIENTED_EDGE ( 'NONE', *, *, #548, .F. ) ;
#680 = SURFACE_STYLE_FILL_AREA ( #221 ) ;
#681 = DIRECTION ( 'NONE',  ( 0.000000000000000000, 0.000000000000000000, 1.000000000000000000 ) ) ;
#682 = UNCERTAINTY_MEASURE_WITH_UNIT (LENGTH_MEASURE( 1.000000000000000082E-05 ), #339, 'distance_accuracy_value', 'NONE');
#683 = ADVANCED_FACE ( 'NONE', ( #86 ), #428, .F. ) ;
#684 = ORIENTED_EDGE ( 'NONE', *, *, #501, .F. ) ;
#685 = PLANE ( 'NONE',  #81 ) ;
#686 = VERTEX_POINT ( 'NONE', #364 ) ;
#687 = VECTOR ( 'NONE', #287, 1000.000000000000000 ) ;
#688 =( LENGTH_UNIT ( ) NAMED_UNIT ( * ) SI_UNIT ( .MILLI., .METRE. ) );
#689 = FILL_AREA_STYLE ('',( #108 ) ) ;
#690 = EDGE_LOOP ( 'NONE', ( #363, #410, #497, #437 ) ) ;
#691 = PRESENTATION_LAYER_ASSIGNMENT (  '', '', ( #715 ) ) ;
#692 = AXIS2_PLACEMENT_3D ( 'NONE', #472, #469, #730 ) ;
#693 = DIRECTION ( 'NONE',  ( -0.000000000000000000, 1.000000000000000000, -0.000000000000000000 ) ) ;
#694 = DIRECTION ( 'NONE',  ( -0.000000000000000000, 1.000000000000000000, -0.000000000000000000 ) ) ;
#695 =( NAMED_UNIT ( * ) SI_UNIT ( $, .STERADIAN. ) SOLID_ANGLE_UNIT ( ) );
#696 = ADVANCED_FACE ( 'NONE', ( #801 ), #555, .F. ) ;
#697 = PLANE ( 'NONE',  #533 ) ;
#698 = LINE ( 'NONE', #578, #385 ) ;
#699 = LINE ( 'NONE', #326, #713 ) ;
#700 = COLOUR_RGB ( '',1.000000000000000000, 1.000000000000000000, 1.000000000000000000 ) ;
#701 = VECTOR ( 'NONE', #774, 1000.000000000000000 ) ;
#702 = AXIS2_PLACEMENT_3D ( 'NONE', #488, #368, #620 ) ;
#703 = LINE ( 'NONE', #446, #531 ) ;
#704 = LINE ( 'NONE', #833, #395 ) ;
#705 = CARTESIAN_POINT ( 'NONE',  ( -0.8999999999999998002, -0.05000000000000000278, 0.8249999999999999556 ) ) ;
#706 =( NAMED_UNIT ( * ) SI_UNIT ( $, .STERADIAN. ) SOLID_ANGLE_UNIT ( ) );
#707 = LINE ( 'NONE', #765, #556 ) ;
#708 = EDGE_CURVE ( 'NONE', #90, #343, #570, .T. ) ;
#709 = FILL_AREA_STYLE_COLOUR ( '', #6 ) ;
#710 = FILL_AREA_STYLE_COLOUR ( '', #825 ) ;
#711 =( NAMED_UNIT ( * ) SI_UNIT ( $, .STERADIAN. ) SOLID_ANGLE_UNIT ( ) );
#712 = SURFACE_STYLE_USAGE ( .BOTH. , #205 ) ;
#713 = VECTOR ( 'NONE', #694, 1000.000000000000000 ) ;
#714 = COLOUR_RGB ( '',0.8274509803921568096, 0.8392156862745098200, 0.8274509803921568096 ) ;
#715 = STYLED_ITEM ( 'NONE', ( #299 ), #633 ) ;
#716 = CARTESIAN_POINT ( 'NONE',  ( -0.8999999999999998002, -0.05000000000000000278, -0.8249999999999999556 ) ) ;
#717 = AXIS2_PLACEMENT_3D ( 'NONE', #365, #20, #305 ) ;
#718 = UNCERTAINTY_MEASURE_WITH_UNIT (LENGTH_MEASURE( 1.000000000000000082E-05 ), #843, 'distance_accuracy_value', 'NONE');
#719 = LINE ( 'NONE', #606, #266 ) ;
#720 = LINE ( 'NONE', #144, #844 ) ;
#721 = ADVANCED_FACE ( 'NONE', ( #379 ), #685, .T. ) ;
#722 = DIRECTION ( 'NONE',  ( -0.000000000000000000, -0.000000000000000000, 1.000000000000000000 ) ) ;
#723 = LINE ( 'NONE', #735, #196 ) ;
#724 = PLANE ( 'NONE',  #692 ) ;
#725 = PRESENTATION_STYLE_ASSIGNMENT (( #473 ) ) ;
#726 = CARTESIAN_POINT ( 'NONE',  ( 0.8999999999999998002, -0.05000000000000000278, 0.8250000000000001776 ) ) ;
#727 = ADVANCED_FACE ( 'NONE', ( #126 ), #697, .T. ) ;
#728 = ORIENTED_EDGE ( 'NONE', *, *, #150, .F. ) ;
#729 = DIRECTION ( 'NONE',  ( 1.000000000000000000, 0.000000000000000000, 0.000000000000000000 ) ) ;
#730 = DIRECTION ( 'NONE',  ( 0.000000000000000000, 0.000000000000000000, 1.000000000000000000 ) ) ;
#731 = PRESENTATION_LAYER_ASSIGNMENT (  '', '', ( #374 ) ) ;
#732 =( NAMED_UNIT ( * ) SI_UNIT ( $, .STERADIAN. ) SOLID_ANGLE_UNIT ( ) );
#733 = MECHANICAL_DESIGN_GEOMETRIC_PRESENTATION_REPRESENTATION (  '', ( #625 ), #181 ) ;
#734 = ADVANCED_FACE ( 'NONE', ( #384 ), #258, .F. ) ;
#735 = CARTESIAN_POINT ( 'NONE',  ( -0.8999999999999998002, -0.05000000000000000278, -0.8249999999999999556 ) ) ;
#736 = MECHANICAL_DESIGN_GEOMETRIC_PRESENTATION_REPRESENTATION (  '', ( #349 ), #457 ) ;
#737 = CIRCLE ( 'NONE', #789, 0.1245674212790487678 ) ;
#738 = FILL_AREA_STYLE_COLOUR ( '', #156 ) ;
#739 = ORIENTED_EDGE ( 'NONE', *, *, #430, .F. ) ;
#740 = ORIENTED_EDGE ( 'NONE', *, *, #100, .F. ) ;
#741 = DIRECTION ( 'NONE',  ( 2.409338161078899674E-16, 0.000000000000000000, 1.000000000000000000 ) ) ;
#742 = SURFACE_STYLE_FILL_AREA ( #678 ) ;
#743 = EDGE_LOOP ( 'NONE', ( #806, #493 ) ) ;
#744 = FILL_AREA_STYLE_COLOUR ( '', #112 ) ;
#745 =( LENGTH_UNIT ( ) NAMED_UNIT ( * ) SI_UNIT ( .MILLI., .METRE. ) );
#746 = MECHANICAL_DESIGN_GEOMETRIC_PRESENTATION_REPRESENTATION (  '', ( #31 ), #125 ) ;
#747 = EDGE_LOOP ( 'NONE', ( #357, #177, #836, #819 ) ) ;
#748 = MECHANICAL_DESIGN_GEOMETRIC_PRESENTATION_REPRESENTATION (  '', ( #280 ), #295 ) ;
#749 = CARTESIAN_POINT ( 'NONE',  ( 1.050000000000000044, 0.000000000000000000, 1.100000000000000089 ) ) ;
#750 =( GEOMETRIC_REPRESENTATION_CONTEXT ( 3 ) GLOBAL_UNCERTAINTY_ASSIGNED_CONTEXT ( ( #682 ) ) GLOBAL_UNIT_ASSIGNED_CONTEXT ( ( #339, #595, #557 ) ) REPRESENTATION_CONTEXT ( 'NONE', 'WORKASPACE' ) );
#751 = CYLINDRICAL_SURFACE ( 'NONE', #47, 0.1245674212790487678 ) ;
#752 = VERTEX_POINT ( 'NONE', #194 ) ;
#753 = DIRECTION ( 'NONE',  ( -1.000000000000000000, 0.000000000000000000, -2.409338161078899674E-16 ) ) ;
#754 =( NAMED_UNIT ( * ) SI_UNIT ( $, .STERADIAN. ) SOLID_ANGLE_UNIT ( ) );
#755 = PRESENTATION_STYLE_ASSIGNMENT (( #758 ) ) ;
#756 = VERTEX_POINT ( 'NONE', #69 ) ;
#757 = SURFACE_SIDE_STYLE ('',( #506 ) ) ;
#758 = SURFACE_STYLE_USAGE ( .BOTH. , #510 ) ;
#759 = CARTESIAN_POINT ( 'NONE',  ( 1.050000000000000044, 0.000000000000000000, 1.100000000000000089 ) ) ;
#760 = COLOUR_RGB ( '',0.8274509803921568096, 0.8392156862745098200, 0.8274509803921568096 ) ;
#761 = EDGE_CURVE ( 'NONE', #424, #565, #771, .T. ) ;
#762 =( GEOMETRIC_REPRESENTATION_CONTEXT ( 3 ) GLOBAL_UNCERTAINTY_ASSIGNED_CONTEXT ( ( #605 ) ) GLOBAL_UNIT_ASSIGNED_CONTEXT ( ( #521, #405, #464 ) ) REPRESENTATION_CONTEXT ( 'NONE', 'WORKASPACE' ) );
#763 = ORIENTED_EDGE ( 'NONE', *, *, #609, .T. ) ;
#764 = PLANE ( 'NONE',  #80 ) ;
#765 = CARTESIAN_POINT ( 'NONE',  ( 1.049360563133880930, 0.03663331352522581491, -1.099360563133881419 ) ) ;
#766 = CARTESIAN_POINT ( 'NONE',  ( 0.000000000000000000, -0.05000000000000000278, 0.000000000000000000 ) ) ;
#767 = DIRECTION ( 'NONE',  ( 0.000000000000000000, -0.9998476951563911586, 0.01745240643728354635 ) ) ;
#768 = VERTEX_POINT ( 'NONE', #200 ) ;
#769 = ORIENTED_EDGE ( 'NONE', *, *, #13, .T. ) ;
#770 = CARTESIAN_POINT ( 'NONE',  ( -0.4499999999999997891, -0.05000000000000000278, 0.8249999999999999556 ) ) ;
#771 = LINE ( 'NONE', #61, #183 ) ;
#772 = STYLED_ITEM ( 'NONE', ( #607 ), #304 ) ;
#773 = AXIS2_PLACEMENT_3D ( 'NONE', #255, #261, #35 ) ;
#774 = DIRECTION ( 'NONE',  ( -0.000000000000000000, 1.000000000000000000, -0.000000000000000000 ) ) ;
#775 = EDGE_CURVE ( 'NONE', #291, #566, #459, .T. ) ;
#776 = DIRECTION ( 'NONE',  ( -0.000000000000000000, 1.000000000000000000, -0.000000000000000000 ) ) ;
#777 = ORIENTED_EDGE ( 'NONE', *, *, #576, .T. ) ;
#778 = PRESENTATION_STYLE_ASSIGNMENT (( #465 ) ) ;
#779 =( NAMED_UNIT ( * ) PLANE_ANGLE_UNIT ( ) SI_UNIT ( $, .RADIAN. ) );
#780 = CARTESIAN_POINT ( 'NONE',  ( -0.4499999999999997891, -0.05000000000000000278, 0.8249999999999999556 ) ) ;
#781 = SURFACE_SIDE_STYLE ('',( #70 ) ) ;
#782 = FILL_AREA_STYLE_COLOUR ( '', #481 ) ;
#783 = PLANE ( 'NONE',  #139 ) ;
#784 = ADVANCED_FACE ( 'NONE', ( #333 ), #461, .T. ) ;
#785 = CARTESIAN_POINT ( 'NONE',  ( -1.050000000000000266, 0.000000000000000000, 1.100000000000000089 ) ) ;
#786 = VECTOR ( 'NONE', #337, 1000.000000000000000 ) ;
#787 = MECHANICAL_DESIGN_GEOMETRIC_PRESENTATION_REPRESENTATION (  '', ( #140 ), #222 ) ;
#788 =( LENGTH_UNIT ( ) NAMED_UNIT ( * ) SI_UNIT ( .MILLI., .METRE. ) );
#789 = AXIS2_PLACEMENT_3D ( 'NONE', #522, #792, #148 ) ;
#790 = UNCERTAINTY_MEASURE_WITH_UNIT (LENGTH_MEASURE( 1.000000000000000082E-05 ), #817, 'distance_accuracy_value', 'NONE');
#791 = DIRECTION ( 'NONE',  ( 0.000000000000000000, 0.000000000000000000, 1.000000000000000000 ) ) ;
#792 = DIRECTION ( 'NONE',  ( 0.000000000000000000, 1.000000000000000000, 0.000000000000000000 ) ) ;
#793 =( NAMED_UNIT ( * ) PLANE_ANGLE_UNIT ( ) SI_UNIT ( $, .RADIAN. ) );
#794 = CARTESIAN_POINT ( 'NONE',  ( 0.8999999999999998002, -0.05000000000000000278, 0.8250000000000001776 ) ) ;
#795 = EDGE_LOOP ( 'NONE', ( #56, #294, #120, #612 ) ) ;
#796 = DIRECTION ( 'NONE',  ( -1.000000000000000000, -0.000000000000000000, -0.000000000000000000 ) ) ;
#797 = SURFACE_STYLE_USAGE ( .BOTH. , #601 ) ;
#798 = FILL_AREA_STYLE_COLOUR ( '', #155 ) ;
#799 = FILL_AREA_STYLE ('',( #540 ) ) ;
#800 = SURFACE_SIDE_STYLE ('',( #662 ) ) ;
#801 = FACE_OUTER_BOUND ( 'NONE', #560, .T. ) ;
#802 = PRESENTATION_LAYER_ASSIGNMENT (  '', '', ( #347 ) ) ;
#803 = ADVANCED_FACE ( 'NONE', ( #642 ), #724, .F. ) ;
#804 = DIRECTION ( 'NONE',  ( -0.000000000000000000, -0.000000000000000000, 1.000000000000000000 ) ) ;
#805 = COLOUR_RGB ( '',1.000000000000000000, 1.000000000000000000, 1.000000000000000000 ) ;
#806 = ORIENTED_EDGE ( 'NONE', *, *, #401, .T. ) ;
#807 = FACE_OUTER_BOUND ( 'NONE', #616, .T. ) ;
#808 = SURFACE_STYLE_USAGE ( .BOTH. , #297 ) ;
#809 = EDGE_LOOP ( 'NONE', ( #484, #129, #427, #188 ) ) ;
#810 = FILL_AREA_STYLE_COLOUR ( '', #321 ) ;
#811 = ORIENTED_EDGE ( 'NONE', *, *, #113, .F. ) ;
#812 =( NAMED_UNIT ( * ) SI_UNIT ( $, .STERADIAN. ) SOLID_ANGLE_UNIT ( ) );
#813 = EDGE_CURVE ( 'NONE', #686, #831, #720, .T. ) ;
#814 = ORIENTED_EDGE ( 'NONE', *, *, #585, .F. ) ;
#815 = VECTOR ( 'NONE', #438, 1000.000000000000000 ) ;
#816 = SURFACE_STYLE_FILL_AREA ( #425 ) ;
#817 =( LENGTH_UNIT ( ) NAMED_UNIT ( * ) SI_UNIT ( .MILLI., .METRE. ) );
#818 = PRESENTATION_LAYER_ASSIGNMENT (  '', '', ( #615 ) ) ;
#819 = ORIENTED_EDGE ( 'NONE', *, *, #253, .F. ) ;
#820 = EDGE_LOOP ( 'NONE', ( #256, #229, #814, #243 ) ) ;
#821 = FILL_AREA_STYLE_COLOUR ( '', #842 ) ;
#822 = EDGE_CURVE ( 'NONE', #565, #302, #737, .T. ) ;
#823 =( NAMED_UNIT ( * ) SI_UNIT ( $, .STERADIAN. ) SOLID_ANGLE_UNIT ( ) );
#824 = MECHANICAL_DESIGN_GEOMETRIC_PRESENTATION_REPRESENTATION (  '', ( #772 ), #596 ) ;
#825 = COLOUR_RGB ( '',0.1921568627450980227, 0.2039215686274509776, 0.2039215686274509776 ) ;
#826 = ORIENTED_EDGE ( 'NONE', *, *, #341, .F. ) ;
#827 = PRESENTATION_LAYER_ASSIGNMENT (  '', '', ( #349 ) ) ;
#828 = COLOUR_RGB ( '',0.8274509803921568096, 0.8392156862745098200, 0.8274509803921568096 ) ;
#829 = FILL_AREA_STYLE ('',( #821 ) ) ;
#830 = CARTESIAN_POINT ( 'NONE',  ( -0.4499999999999997891, -0.05000000000000000278, -0.8249999999999999556 ) ) ;
#831 = VERTEX_POINT ( 'NONE', #846 ) ;
#832 = DIRECTION ( 'NONE',  ( 0.000000000000000000, 1.000000000000000000, 0.000000000000000000 ) ) ;
#833 = CARTESIAN_POINT ( 'NONE',  ( -0.8999999999999998002, 0.000000000000000000, -0.8249999999999999556 ) ) ;
#834 = PRESENTATION_STYLE_ASSIGNMENT (( #247 ) ) ;
#835 = ORIENTED_EDGE ( 'NONE', *, *, #22, .F. ) ;
#836 = ORIENTED_EDGE ( 'NONE', *, *, #822, .T. ) ;
#837 = EDGE_CURVE ( 'NONE', #234, #752, #77, .T. ) ;
#838 = CARTESIAN_POINT ( 'NONE',  ( -1.050000000000000266, 0.000000000000000000, 1.100000000000000089 ) ) ;
#839 = EDGE_LOOP ( 'NONE', ( #114, #835, #679, #336 ) ) ;
#840 = APPLICATION_CONTEXT ( 'automotive_design' ) ;
#841 = FILL_AREA_STYLE ('',( #518 ) ) ;
#842 = COLOUR_RGB ( '',0.1921568627450980227, 0.2039215686274509776, 0.2039215686274509776 ) ;
#843 =( LENGTH_UNIT ( ) NAMED_UNIT ( * ) SI_UNIT ( .MILLI., .METRE. ) );
#844 = VECTOR ( 'NONE', #153, 1000.000000000000000 ) ;
#845 = ORIENTED_EDGE ( 'NONE', *, *, #485, .T. ) ;
#846 = CARTESIAN_POINT ( 'NONE',  ( -0.4499999999999997891, 0.000000000000000000, 0.8249999999999999556 ) ) ;
#847 = ADVANCED_FACE ( 'NONE', ( #285 ), #300, .T. ) ;
#848 =( NAMED_UNIT ( * ) PLANE_ANGLE_UNIT ( ) SI_UNIT ( $, .RADIAN. ) );
#849 = UNCERTAINTY_MEASURE_WITH_UNIT (LENGTH_MEASURE( 1.000000000000000082E-05 ), #230, 'distance_accuracy_value', 'NONE');
#850 = LINE ( 'NONE', #471, #647 ) ;
#851 = PRESENTATION_STYLE_ASSIGNMENT (( #712 ) ) ;
ENDSEC;
END-ISO-10303-21;
